 http://beeimg.com/images/p63325880092.jpg

Code:
General
Complete name                            : One Direction - Live While We're Young.MP4
Format                                   : MPEG-4
Format profile                           : Base Media / Version 2
Codec ID                                 : mp42
File size                                : 143 MiB
Duration                                 : 3mn 17s
Overall bit rate mode                    : Variable
Overall bit rate                         : 6 046 Kbps
Encoded date                             : UTC 2012-09-13 13:06:54
Tagged date                              : UTC 2012-09-13 13:06:54

Video
ID                                       : 1
Format                                   : AVC
Format/Info                              : Advanced Video Codec
Format profile                           : High@L4.0
Format settings, CABAC                   : Yes
Format settings, ReFrames                : 1 frame
Codec ID                                 : avc1
Codec ID/Info                            : Advanced Video Coding
Duration                                 : 3mn 17s
Bit rate                                 : 5 852 Kbps
Maximum bit rate                         : 10.5 Mbps
Width                                    : 1 920 pixels
Height                                   : 1 080 pixels
Display aspect ratio                     : 16:9
Frame rate mode                          : Constant
Frame rate                               : 25.000 fps
Color space                              : YUV
Chroma subsampling                       : 4:2:0
Bit depth                                : 8 bits
Scan type                                : Progressive
Bits/(Pixel*Frame)                       : 0.113
Stream size                              : 138 MiB (97%)
Tagged date                              : UTC 2012-09-13 13:06:55

Audio
ID                                       : 2
Format                                   : AAC
Format/Info                              : Advanced Audio Codec
Format profile                           : LC
Codec ID                                 : 40
Duration                                 : 3mn 17s
Bit rate mode                            : Variable
Bit rate                                 : 192 Kbps
Maximum bit rate                         : 202 Kbps
Channel(s)                               : 2 channels
Channel positions                        : Front: L R
Sampling rate                            : 44.1 KHz
Compression mode                         : Lossy
Stream size                              : 4.53 MiB (3%)
Encoded date                             : UTC 2012-09-13 13:06:55
Tagged date                              : UTC 2012-09-13 13:06:55

Screenshots 
http://beeimg.com/images/l17604697282.png 
http://beeimg.com/images/b87166537091.png 
http://beeimg.com/images/h69891064881.png


Note:The copyright of the record belongs to the original distribution company only, here is only for user reviews. If
you like the bands/artists, support them by buying their music on iTunes or go to their shows. 

Quote:
Source - YouTube/MoL Thanks 
Please SEED after Downloading